<?xml version="1.0"?>
<svg xmlns="http://www.w3.org/2000/svg" id="Capa_1" enable-background="new 0 0 512 512" height="512px" viewBox="0 0 512 512" width="512px" class=""><g><g><path d="m291.89 66.15c.739.167 1.477.247 2.204.247 4.566 0 8.688-3.156 9.733-7.805l9.658-42.928c1.212-5.388-2.167-10.74-7.548-11.954-5.381-1.217-10.725 2.17-11.938 7.558l-9.658 42.928c-1.211 5.388 2.169 10.74 7.549 11.954z" data-original="#000000" class="active-path" data-old_color="#000000" fill="#FFFFFF"/><path d="m244.82 52.527c1.9 3.011 5.14 4.659 8.452 4.659 1.824 0 3.671-.501 5.326-1.548 4.662-2.951 6.054-9.128 3.107-13.797l-23.466-37.182c-2.946-4.669-9.115-6.06-13.778-3.112-4.662 2.951-6.054 9.128-3.107 13.797z" data-original="#000000" class="active-path" data-old_color="#000000" fill="#FFFFFF"/><path d="m334.916 75.605c1.825 0 3.671-.501 5.328-1.549l37.161-23.528c4.662-2.952 6.052-9.129 3.104-13.797-2.947-4.667-9.116-6.06-13.778-3.108l-37.161 23.527c-4.662 2.952-6.052 9.129-3.104 13.797 1.9 3.01 5.139 4.658 8.45 4.658z" data-original="#000000" class="active-path" data-old_color="#000000" fill="#FFFFFF"/><path d="m458.873 433.94-63.246-27.27-20.276-75.797c26.169-9.789 48.393-30.025 60.591-55.642 11.928-25.051 12.73-52.413 2.329-77.315-.075-.184-.688-1.62-.926-2.152l-43.475-97.377c-2.003-4.486-6.965-6.85-11.702-5.578l-95.558 25.635 1.466-14.165c.503-4.861-2.576-9.374-7.281-10.672l-31.28-8.632c-5.317-1.468-10.816 1.659-12.281 6.984s1.658 10.831 6.975 12.298l23.127 6.382-4.269 41.247c-28.364-13.023-65.602-11.632-91.279 4.869-20.803 13.369-53.869 13.587-76.225 1.432l37.327-83.575 25.216 6.769c5.325 1.431 10.804-1.734 12.232-7.07 1.428-5.335-1.733-10.818-7.06-12.249l-33.442-8.978c-4.737-1.273-9.7 1.091-11.703 5.576l-43.506 97.409c-11.354 25.457-10.852 53.667 1.414 79.434 12.199 25.626 34.435 45.875 60.609 55.671l-20.275 75.796-63.252 27.246c-11.266 4.866-18.327 16.108-17.569 27.975.756 11.851 9.207 21.509 22.055 25.203.058.017.116.033.174.048l88.419 23.702c.052.014.105.028.158.041 2.939.737 5.834 1.096 8.632 1.096 9.566 0 17.993-4.196 23.082-11.842 6.587-9.896 6.087-23.165-1.247-33.023l-41.157-55.266 20.274-75.792c5.854.983 11.788 1.473 17.73 1.473 22.037-.001 44.164-6.67 62.56-19.341 1.615-1.112 3.183-2.266 4.712-3.452 7.391 18.623 20.775 34.52 38.793 45.756 17.56 10.951 38.306 16.686 58.808 16.686 5.884 0 11.747-.477 17.509-1.434l20.276 75.799-41.158 55.269c-7.338 9.855-7.849 23.125-1.271 33.021 5.092 7.661 13.527 11.865 23.105 11.865 2.786 0 5.671-.356 8.596-1.086.057-.014.113-.029.17-.044l88.419-23.73c.056-.015.112-.031.167-.046 12.873-3.696 21.335-13.363 22.085-25.227.75-11.863-6.316-23.087-17.572-27.927zm-174.467-294.198 94.705-25.406 37.308 83.564c-22.347 12.157-55.411 11.933-76.23-1.446-16.363-10.526-38.545-15.161-60.307-13.01zm-122.951 309.606c-2.462 3.7-7.399 3.138-10.174 2.454l-88.236-23.652c-2.737-.799-7.273-2.79-7.557-7.231-.178-2.783 1.482-6.578 5.538-8.331l60.45-26.039 39.336 52.822c2.642 3.549 2.185 7.66.643 9.977zm63.461-187.337c-21.065 14.509-49.249 19.455-73.573 12.905-.001 0-.001 0-.002-.001-.001 0-.002 0-.004-.001-.001 0-.002 0-.003-.001-24.318-6.506-46.26-24.904-57.262-48.016-7.674-16.121-9.525-33.403-5.563-49.826 13.33 6.728 28.858 10.143 44.337 10.142 17.806-.001 35.538-4.504 49.731-13.625 21.446-13.784 55.922-13.6 78.276-.299l-3.628 35.054c-2.251 21.809-13.725 40.868-32.309 53.668zm65.383 41.805c-16.902-10.54-28.63-26.144-33.446-44.288 11.336-13.957 18.344-30.762 20.24-49.126l.678-6.551c18.658-2.803 37.922.616 51.627 9.433 14.21 9.132 31.948 13.639 49.763 13.639 15.472 0 30.992-3.414 44.313-10.138 3.965 16.43 2.116 33.715-5.561 49.837-11 23.103-32.927 41.487-57.249 47.988 0 0-.001 0-.002 0 0 0-.002.001-.003.001-.003.001-.006.002-.009.003-23.187 6.25-49.487 2.214-70.351-10.798zm158.63 164.029-88.232 23.68c-2.774.68-7.705 1.233-10.166-2.471-1.54-2.317-1.991-6.429.656-9.984l39.337-52.823 60.457 26.068c4.049 1.741 5.704 5.517 5.529 8.289-.279 4.447-4.834 6.44-7.581 7.241z" data-original="#000000" class="active-path" data-old_color="#000000" fill="#FFFFFF"/><path d="m202.696 92.983c5.516 0 9.987-4.477 9.987-10.001 0-5.523-4.471-10.001-9.987-10.001h-.058c-5.516 0-9.958 4.477-9.958 10.001.001 5.524 4.501 10.001 10.016 10.001z" data-original="#000000" class="active-path" data-old_color="#000000" fill="#FFFFFF"/></g></g> </svg>
