<?xml version="1.0"?>
<svg xmlns="http://www.w3.org/2000/svg" xmlns:xlink="http://www.w3.org/1999/xlink" version="1.1" id="Capa_1" x="0px" y="0px" viewBox="0 0 303.593 303.593" style="enable-background:new 0 0 303.593 303.593;" xml:space="preserve" width="512px" height="512px" class=""><g><g>
	<path d="M266.797,105.171h-52.124v-3.631c0-7.471-6.057-13.527-13.527-13.527H36.797c-7.471,0-13.527,6.057-13.527,13.527v188.525   c0,7.471,6.057,13.527,13.527,13.527h164.348c7.471,0,13.527-6.057,13.527-13.527V254.42c9.894-2.775,21.943-8.559,33.011-20.447   c21.659-23.263,32.641-62.047,32.641-115.275C280.324,111.228,274.267,105.171,266.797,105.171z M94.603,212.903   c2.993,2.483,3.404,6.921,0.92,9.914c-1.393,1.676-3.398,2.541-5.419,2.541c-1.587,0-3.179-0.53-4.493-1.622L58.482,201.22   c-1.612-1.34-2.544-3.323-2.544-5.418c0-2.093,0.932-4.078,2.544-5.416l27.129-22.517c2.991-2.483,7.428-2.07,9.912,0.921   c2.484,2.992,2.073,7.431-0.92,9.914l-20.602,17.099L94.603,212.903z M138.664,153.1l-25.862,89.324   c-0.894,3.081-3.706,5.082-6.759,5.082c-0.649,0-1.307-0.09-1.961-0.279c-3.735-1.081-5.886-4.983-4.803-8.72l25.86-89.324   c1.081-3.734,4.985-5.884,8.72-4.805C137.593,145.461,139.743,149.363,138.664,153.1z M179.458,201.22l-27.127,22.517   c-1.315,1.09-2.91,1.622-4.492,1.622c-2.021,0-4.028-0.865-5.42-2.541c-2.484-2.993-2.073-7.431,0.92-9.914l20.602-17.102   l-20.602-17.099c-2.993-2.483-3.404-6.922-0.92-9.914c2.483-2.991,6.921-3.404,9.913-0.921l27.127,22.517   c1.614,1.338,2.545,3.323,2.545,5.416C182.003,197.897,181.072,199.88,179.458,201.22z M214.672,225.651v-93.425h38.338   C250.528,195.018,230.712,217.672,214.672,225.651z" data-original="#000000" class="active-path" data-old_color="#000000" fill="#FFFFFF"/>
	<path d="M76.741,57.759c1.419,0.698,2.923,1.028,4.404,1.028c3.692,0,7.243-2.053,8.982-5.591l19.065-38.782   c2.437-4.956,0.394-10.949-4.563-13.386C99.675-1.408,93.68,0.633,91.244,5.591L72.178,44.373   C69.742,49.329,71.784,55.322,76.741,57.759z" data-original="#000000" class="active-path" data-old_color="#000000" fill="#FFFFFF"/>
	<path d="M133.309,57.759c1.419,0.698,2.923,1.028,4.405,1.028c3.692,0,7.242-2.053,8.981-5.59l19.069-38.782   c2.436-4.957,0.395-10.95-4.562-13.387c-4.956-2.436-10.949-0.395-13.387,4.562l-19.069,38.782   C126.311,49.329,128.353,55.322,133.309,57.759z" data-original="#000000" class="active-path" data-old_color="#000000" fill="#FFFFFF"/>
</g></g> </svg>
