<?xml version="1.0"?>
<svg xmlns="http://www.w3.org/2000/svg" xmlns:xlink="http://www.w3.org/1999/xlink" version="1.1" id="Capa_1" x="0px" y="0px" viewBox="0 0 457.833 457.833" style="enable-background:new 0 0 457.833 457.833;" xml:space="preserve" width="512px" height="512px"><g transform="matrix(-1 -1.22465e-16 1.22465e-16 -1 457.833 457.833)"><path id="XMLID_42_" d="M249.242,96.908c-33.076,53.673-58.813,112.495-57.791,176.048c-8.304-36.384-2.649-108.407,34.369-180.165  c-53.61,19.043-133.664,60.278-146.222,139.799c-13.128,83.142,8.221,168.871,22.883,214.419c4.005,12.443,20.64,14.75,27.801,3.814  c15.239-23.27,42.82-55.897,88.329-80.823c49.213-26.959,141.055-74.898,68.311-261.938c34.095-47.527,53.616-73.121,93.126-98.869  c4.704-3.065,1.524-10.402-3.918-9.022C315.355,15.583,282.504,54.252,249.242,96.908z" data-original="#000000" class="active-path" data-old_color="#000000" fill="#FFFFFF"/></g> </svg>
